<svg width="125" height="57" viewBox="0 0 125 57" fill="none" xmlns="http://www.w3.org/2000/svg">
<g clip-path="url(#clip0_569:1424)">
<path d="M4.63074 47.2173H6.93798V52.7525C6.98602 53.4921 6.82857 54.2307 6.48303 54.8864C6.16873 55.3854 5.72697 55.7916 5.20333 56.0629C4.67969 56.3342 4.09314 56.461 3.5042 56.43C2.83253 56.4519 2.1671 56.2949 1.57608 55.975C0.492864 55.3522 0 54.5073 0 52.7633V47.2173H2.30724V52.7254C2.30724 53.8519 2.65929 54.399 3.48253 54.399C4.30577 54.399 4.63074 54.009 4.63074 52.7362V47.2173Z" fill="#EB5E51"/>
<path d="M14.1739 56.2567L10.7022 50.7377L10.7618 56.2567H8.552V47.2173H10.5451L14.0601 52.9366L13.9627 47.2173H16.1778V56.2567H14.1739Z" fill="#EB5E51"/>
<path d="M20.1315 47.2173H17.8242V56.2567H20.1315V47.2173Z" fill="#EB5E51"/>
<path d="M24.1664 56.2567L21.1497 47.2173H23.5165L25.3363 53.5595H25.3634L27.194 47.2173H29.5771L26.5495 56.2567H24.1664Z" fill="#EB5E51"/>
<path d="M30.5898 56.2567V47.2173H35.6105V49.2429H32.7996V50.651H35.5239V52.6767H32.7996V54.2311H35.6105V56.2567H30.5898Z" fill="#EB5E51"/>
<path d="M41.368 56.2567L39.2774 53.3374H39.2503V56.2567H37.0405V47.2173H39.9977C40.7347 47.1813 41.4714 47.2936 42.1641 47.5476C42.6791 47.8028 43.1094 48.2012 43.4034 48.6951C43.6974 49.1889 43.8426 49.7572 43.8214 50.3315C43.8586 50.9987 43.6506 51.6566 43.2367 52.1812C42.8227 52.7059 42.2313 53.0612 41.5738 53.1804L44.0327 56.2567H41.368ZM40.106 51.7613C41.0213 51.7613 41.5846 51.3335 41.5846 50.4669C41.5846 49.6816 40.9997 49.2429 40.1331 49.2429H39.2503V51.7613H40.106Z" fill="#EB5E51"/>
<path d="M48.5604 49.8549C48.4629 49.205 48.1921 48.9775 47.7426 48.9775C47.5437 48.9656 47.3483 49.0331 47.199 49.165C47.0498 49.297 46.959 49.4828 46.9464 49.6816C46.9464 50.2232 47.4393 50.4669 48.425 50.8948C50.4181 51.7505 50.9164 52.4709 50.9164 53.6516C50.9164 55.401 49.7194 56.43 47.7697 56.43C45.8199 56.43 44.52 55.4009 44.52 53.4566V53.2616H46.8164C46.8164 54.009 47.1956 54.4965 47.7697 54.4965C47.8837 54.4972 47.9967 54.4753 48.1021 54.432C48.2076 54.3887 48.3034 54.3249 48.384 54.2443C48.4646 54.1636 48.5284 54.0678 48.5717 53.9624C48.615 53.8569 48.637 53.7439 48.6362 53.6299C48.6362 52.9096 47.6343 52.59 46.8164 52.2596C45.3378 51.6639 44.65 50.8785 44.65 49.7087C44.65 48.1705 46.1394 47.044 47.8022 47.044C48.3666 47.0355 48.9245 47.1657 49.427 47.4231C49.8861 47.6335 50.2701 47.9792 50.5276 48.4137C50.785 48.8483 50.9037 49.3511 50.8677 49.8549H48.5604Z" fill="#EB5E51"/>
<path d="M54.3287 47.2173H52.0215V56.2567H54.3287V47.2173Z" fill="#EB5E51"/>
<path d="M57.0529 56.2567V49.2429H55.271V47.2173H61.1366V49.2429H59.3601V56.2567H57.0529Z" fill="#EB5E51"/>
<path d="M64.2348 56.2567V52.9745L61.5376 47.2173H64.0398L65.383 50.846L66.7424 47.2173H69.223L66.5475 52.9745V56.2567H64.2348Z" fill="#EB5E51"/>
<path d="M22.2438 38.9361C22.0853 38.9347 21.9338 38.8707 21.8222 38.7581C21.7106 38.6455 21.648 38.4934 21.648 38.3349V35.0853H21.5505C20.3752 37.4792 17.1527 38.9469 13.5835 38.9469C5.56772 38.9469 0 32.6426 0 24.4319C0 16.4161 5.81144 9.96558 13.5835 9.96558C16.909 9.96558 19.9853 11.2871 21.5505 13.7568H21.648V10.5397C21.648 10.3817 21.7108 10.2301 21.8225 10.1184C21.9342 10.0067 22.0858 9.94391 22.2438 9.94391H29.1601C29.3181 9.94391 29.4697 10.0067 29.5814 10.1184C29.6931 10.2301 29.7559 10.3817 29.7559 10.5397V38.3241C29.7559 38.4826 29.6933 38.6347 29.5817 38.7473C29.4701 38.8599 29.3186 38.9238 29.1601 38.9253L22.2438 38.9361ZM21.648 24.4211C21.6487 23.5161 21.471 22.62 21.1251 21.7838C20.7791 20.9477 20.2717 20.1879 19.6318 19.548C18.9919 18.9082 18.2322 18.4007 17.396 18.0548C16.5599 17.7088 15.6637 17.5311 14.7588 17.5318C11.0434 17.5318 8.11327 20.6081 8.11327 24.5185C8.11967 25.4076 8.30112 26.2867 8.64726 27.1056C8.99341 27.9246 9.49746 28.6673 10.1306 29.2914C10.7638 29.9156 11.5138 30.4089 12.3376 30.7432C13.1614 31.0775 14.043 31.2463 14.9321 31.2399C15.8212 31.2335 16.7003 31.052 17.5192 30.7059C18.3381 30.3597 19.0809 29.8557 19.705 29.2225C20.3291 28.5893 20.8224 27.8394 21.1567 27.0156C21.4911 26.1917 21.6598 25.3101 21.6534 24.4211" fill="#9BD3D9"/>
<path d="M35.9141 38.3349V6.41264C35.9147 6.32533 35.9339 6.23915 35.9703 6.15979C36.0067 6.08044 36.0595 6.00971 36.1253 5.95227L43.047 0.129997C43.1338 0.0566889 43.2397 0.00970221 43.3522 -0.00542137C43.4648 -0.0205449 43.5793 -0.00317603 43.6824 0.0446353C43.7854 0.0924466 43.8726 0.168712 43.9337 0.26444C43.9948 0.360168 44.0273 0.471369 44.0273 0.584944V38.3241C44.0273 38.4826 43.9647 38.6347 43.8532 38.7473C43.7416 38.8599 43.5901 38.9239 43.4316 38.9253H36.5098C36.3513 38.9239 36.1998 38.8599 36.0882 38.7473C35.9767 38.6347 35.9141 38.4826 35.9141 38.3241" fill="#9BD3D9"/>
<path d="M75.8304 26.9612C75.7393 26.9617 75.6495 26.983 75.5678 27.0233C75.4861 27.0636 75.4147 27.122 75.3589 27.194C75.3031 27.266 75.2643 27.3497 75.2456 27.4388C75.2269 27.528 75.2287 27.6202 75.2508 27.7086C75.9766 30.3679 78.4084 32.0902 81.4523 32.0902C82.3759 32.1245 83.2938 31.931 84.125 31.5267C84.9562 31.1225 85.6751 30.5199 86.2184 29.7721C86.2733 29.7027 86.3433 29.6466 86.423 29.6081C86.5028 29.5697 86.5902 29.5498 86.6788 29.5501H93.7576C93.8597 29.5486 93.9605 29.5735 94.0503 29.6223C94.14 29.6711 94.2157 29.7421 94.2701 29.8286C94.3245 29.9151 94.3558 30.0141 94.3608 30.1161C94.3659 30.2181 94.3447 30.3198 94.2992 30.4112C91.6182 35.8002 86.89 38.9361 81.4577 38.9361C79.5708 38.9368 77.7023 38.5656 75.9589 37.8437C74.2156 37.1218 72.6317 36.0633 71.2977 34.7288C69.9637 33.3943 68.9059 31.81 68.1846 30.0664C67.4633 28.3228 67.0928 26.4542 67.0942 24.5673C67.0942 16.7465 73.3444 10.0035 81.3114 10.0035C89.4355 10.0035 95.6315 16.4053 95.6315 24.811C95.6349 25.3545 95.5987 25.8976 95.5232 26.4358C95.5036 26.5784 95.433 26.7091 95.3244 26.8037C95.2159 26.8983 95.0768 26.9504 94.9328 26.9503L75.8304 26.9612ZM86.7113 21.4909C86.8057 21.4882 86.8982 21.463 86.981 21.4174C87.0638 21.3719 87.1346 21.3073 87.1875 21.229C87.2404 21.1507 87.2739 21.0609 87.2853 20.9671C87.2967 20.8732 87.2856 20.7781 87.2529 20.6894C86.37 18.355 84.1061 16.844 81.2952 16.844C80.0383 16.803 78.7997 17.1529 77.7501 17.8455C76.7005 18.5381 75.8916 19.5393 75.435 20.711C75.4025 20.8 75.3915 20.8955 75.4029 20.9895C75.4142 21.0836 75.4477 21.1736 75.5005 21.2523C75.5533 21.331 75.624 21.3961 75.7067 21.4422C75.7894 21.4884 75.8819 21.5144 75.9766 21.518L86.7113 21.4909Z" fill="#9BD3D9"/>
<path fill-rule="evenodd" clip-rule="evenodd" d="M111.576 0.129983L99.3903 10.3718C99.3308 10.4226 99.2831 10.4857 99.2504 10.5568C99.2176 10.6278 99.2007 10.7052 99.2007 10.7834C99.2007 10.8616 99.2176 10.9389 99.2504 11.01C99.2831 11.081 99.3308 11.1442 99.3903 11.195L103.431 14.5855C103.528 14.6651 103.649 14.7087 103.775 14.7087C103.9 14.7087 104.022 14.6651 104.119 14.5855L111.576 8.31907C111.674 8.23801 111.796 8.19363 111.923 8.19363C112.05 8.19363 112.172 8.23801 112.27 8.31907L119.728 14.5855C119.825 14.6665 119.948 14.7109 120.074 14.7109C120.201 14.7109 120.324 14.6665 120.421 14.5855L124.456 11.195C124.515 11.1442 124.563 11.081 124.596 11.01C124.628 10.9389 124.645 10.8616 124.645 10.7834C124.645 10.7052 124.628 10.6278 124.596 10.5568C124.563 10.4857 124.515 10.4226 124.456 10.3718L112.27 0.129983C112.172 0.0489229 112.05 0.00453186 111.923 0.00453186C111.796 0.00453186 111.674 0.0489229 111.576 0.129983Z" fill="#EB5E51"/>
<path fill-rule="evenodd" clip-rule="evenodd" d="M116.982 21.491H106.864C106.754 21.4899 106.647 21.4552 106.557 21.3915C106.467 21.3278 106.398 21.2381 106.361 21.1345C106.323 21.0309 106.318 20.9182 106.346 20.8116C106.374 20.7049 106.434 20.6094 106.518 20.5377L106.572 20.4944L107.021 20.1153L108.646 18.745L109.096 18.3605L110.277 17.3693L111.566 16.2861C111.663 16.2051 111.785 16.1607 111.912 16.1607C112.039 16.1607 112.161 16.2051 112.259 16.2861L113.548 17.3693L114.729 18.3605L115.178 18.745L116.803 20.1153L117.252 20.4944L117.301 20.5377C117.385 20.6094 117.445 20.7049 117.473 20.8116C117.501 20.9182 117.496 21.0309 117.458 21.1345C117.42 21.2381 117.352 21.3278 117.262 21.3915C117.172 21.4552 117.065 21.4899 116.955 21.491" fill="#9BD3D9"/>
<path d="M61.4073 32.7781H62.9346C63.0931 32.778 63.2452 32.8406 63.3578 32.9522C63.4704 33.0638 63.5343 33.2153 63.5358 33.3738V38.3349C63.5343 38.4934 63.4704 38.645 63.3578 38.7565C63.2452 38.8681 63.0931 38.9307 62.9346 38.9307H57.5998C55.9913 38.911 54.4543 38.2634 53.3169 37.1259C52.1795 35.9885 51.5318 34.4515 51.5121 32.843V16.0912H48.0946C47.9361 16.0912 47.784 16.0286 47.6714 15.917C47.5588 15.8054 47.4948 15.6539 47.4934 15.4954V10.5343C47.4934 10.3748 47.5568 10.2219 47.6695 10.1092C47.7822 9.99642 47.9352 9.93308 48.0946 9.93308H51.5013V6.41264C51.5016 6.32473 51.5211 6.23795 51.5585 6.15841C51.5959 6.07886 51.6504 6.0085 51.7179 5.95227L58.6342 0.129997C58.721 0.0566889 58.8269 0.00970221 58.9395 -0.00542137C59.052 -0.0205449 59.1666 -0.00317603 59.2696 0.0446353C59.3726 0.0924466 59.4598 0.168712 59.5209 0.26444C59.5821 0.360168 59.6145 0.471369 59.6146 0.584945V9.93308H62.9346C63.094 9.93308 63.247 9.99642 63.3597 10.1092C63.4724 10.2219 63.5358 10.3748 63.5358 10.5343V15.4954C63.5343 15.6539 63.4704 15.8054 63.3578 15.917C63.2452 16.0286 63.0931 16.0912 62.9346 16.0912H59.6254V31.0016C59.6254 31.477 59.8143 31.933 60.1505 32.2692C60.4867 32.6054 60.9427 32.7943 61.4181 32.7943" fill="#9BD3D9"/>
</g>
<defs>
<clipPath id="clip0_569:1424">
<rect width="124.651" height="56.43" fill="white"/>
</clipPath>
</defs>
</svg>
