<?xml version="1.0" encoding="utf-8"?>
<!-- Generator: Adobe Illustrator 25.2.1, SVG Export Plug-In . SVG Version: 6.00 Build 0)  -->
<svg version="1.1" id="Layer_1" xmlns="http://www.w3.org/2000/svg" xmlns:xlink="http://www.w3.org/1999/xlink" x="0px" y="0px"
	 viewBox="0 0 256 256" style="enable-background:new 0 0 256 256;" xml:space="preserve">
<style type="text/css">
	.st0{fill:#7650FF;}
</style>
<g>
	<path class="st0" d="M91.93,235.11c1.19-4.65,4.21-6.01,10.03-4.51c5.84,1.51,7.81,4.15,6.62,8.83l-3.42-0.88
		c0.73-2.86-0.4-4.38-3.88-5.28c-3.36-0.87-4.95-0.21-5.56,2.2c-1.38,5.41,12.16,5.44,10.22,13.04c-1.19,4.65-4.1,6.04-9.72,4.59
		c-5.6-1.44-7.51-4.08-6.31-8.75l3.45,0.89c-0.72,2.83,0.31,4.36,3.55,5.19c3.15,0.81,4.67,0.17,5.29-2.27
		C103.39,243.44,89.86,243.2,91.93,235.11"/>
	<path class="st0" d="M59.17,218.75c4.16-3.89,7.94-4.3,12.64-1.31c6.28,4.01,7.13,8.68,2.79,15.54c-4.34,6.86-8.92,8.07-15.2,4.06
		c-5.12-3.27-6.32-6.86-4.19-12.04l3.3,2.1c-1.13,3.3-0.4,5.36,2.58,7.27c3.88,2.48,6.87,1.44,10.05-3.59s2.85-8.18-1.03-10.66
		c-2.8-1.79-4.97-1.57-7.65,0.73L59.17,218.75z"/>
	<polygon class="st0" points="33.14,213.66 49.31,198.86 51.94,201.76 35.77,216.56 	"/>
	<polygon class="st0" points="20.58,191.04 25.91,188.14 21.13,179.28 23.71,177.87 28.49,186.73 34.6,183.41 29.22,173.45 
		31.83,172.03 39.07,185.44 19.83,195.91 12.59,182.5 15.2,181.08 	"/>
	<polygon class="st0" points="1.85,144 23.35,139.95 24.2,144.51 9.53,157.34 26.02,154.23 26.71,157.9 5.21,161.96 4.36,157.42 
		19.04,144.59 2.54,147.7 	"/>
	<polygon class="st0" points="6.54,105.4 5.71,112.03 24.29,114.37 23.81,118.27 5.23,115.93 4.4,122.56 1.27,122.16 3.41,105 	"/>
	<polygon class="st0" points="10.67,81.48 31.06,89.43 29.65,93.09 9.25,85.13 	"/>
	<path class="st0" d="M41.79,61.2l-5.19,7.16l3.01,4.22l-2.31,3.2L24.02,56.75l3.2-4.41l21.89,7.14l-2.43,3.35L41.79,61.2z
		 M34.91,65.99l4.14-5.71l-10.76-3.55L34.91,65.99z"/>
	<path class="st0" d="M81.81,26.17l-4.82,2.25l3.36,7.26l-3.54,1.66L67.58,17.4l8.36-3.9c5.13-2.39,8.44-0.75,10.15,2.95
		C87.82,20.18,86.94,23.78,81.81,26.17 M77.03,16.29l-4.65,2.17l3.36,7.26l4.65-2.17c2.69-1.25,3.23-3.06,2.14-5.43
		C81.45,15.78,79.72,15.03,77.03,16.29"/>
	<path class="st0" d="M125.77,12.83c0.9,8.08-1.95,11.9-9.44,12.74c-7.52,0.84-11.1-2.27-11.99-10.35s1.92-11.9,9.44-12.74
		C121.26,1.65,124.88,4.75,125.77,12.83 M108.4,14.77c0.65,5.93,2.89,8.17,7.58,7.65s6.38-3.21,5.72-9.13
		c-0.65-5.93-2.89-8.17-7.58-7.65S107.75,8.84,108.4,14.77"/>
	<polygon class="st0" points="160.63,9.62 154.1,8.31 150.43,26.74 146.6,25.97 150.27,7.54 143.74,6.23 144.36,3.12 161.25,6.51 	
		"/>
	<polygon class="st0" points="183.4,18.46 180.55,23.83 189.41,28.56 188.03,31.16 179.17,26.44 175.91,32.59 185.88,37.91 
		184.49,40.54 171.07,33.38 181.34,13.98 194.75,21.14 193.36,23.77 	"/>
	<path class="st0" d="M212.18,56.51c-3.37,3.4-6.67,3.03-10.92-1.22c-4.27-4.28-4.64-7.56-1.24-10.98l2.5,2.5
		c-2.07,2.09-1.87,3.98,0.68,6.52c2.46,2.46,4.16,2.7,5.9,0.95c3.93-3.96-7.74-10.88-2.22-16.44c3.38-3.4,6.58-3.12,10.7,1
		c4.1,4.1,4.41,7.34,1.02,10.76l-2.53-2.52c2.05-2.07,1.94-3.91-0.43-6.28c-2.3-2.31-3.94-2.52-5.7-0.74
		C206.52,43.49,218.05,50.59,212.18,56.51"/>
	<polygon class="st0" points="240.42,77.69 237.23,71.82 220.79,80.84 218.92,77.39 235.35,68.38 232.16,62.51 234.93,60.99 
		243.19,76.17 	"/>
	<path class="st0" d="M235.8,109.46l-1.93-8.64l-5.14-0.51l-0.87-3.86l22.99,2.53l1.2,5.33l-19.79,11.8l-0.9-4.04L235.8,109.46z
		 M236.75,101.11l1.54,6.89l9.76-5.77L236.75,101.11z"/>
	<path class="st0" d="M237.71,147.37c-4.77-0.4-6.6-3.18-6.1-9.18c0.51-6.03,2.78-8.42,7.57-8.02l-0.3,3.53
		c-2.93-0.25-4.24,1.12-4.54,4.72c-0.29,3.47,0.62,4.94,3.08,5.15c5.55,0.47,3.31-12.95,11.1-12.29c4.77,0.4,6.62,3.05,6.12,8.86
		c-0.48,5.79-2.75,8.12-7.55,7.71l0.3-3.57c2.9,0.24,4.23-1.03,4.51-4.38c0.27-3.25-0.61-4.65-3.11-4.86
		C243.98,134.63,245.99,148.07,237.71,147.37"/>
	<polygon class="st0" points="233.15,194.61 228.07,191.29 222.6,199.74 220.14,198.13 225.61,189.68 219.79,185.89 213.63,195.39 
		211.14,193.76 219.43,180.97 237.77,192.95 229.49,205.73 227,204.11 	"/>
	<path class="st0" d="M192.9,220.06c-3.08-3.67-2.43-6.93,2.16-10.82c4.61-3.91,7.9-3.98,11-0.29l-2.7,2.29
		c-1.9-2.26-3.78-2.21-6.53,0.11c-2.65,2.25-3.04,3.93-1.44,5.82c3.59,4.27,11.46-6.79,16.5-0.8c3.08,3.67,2.53,6.85-1.91,10.62
		c-4.42,3.74-7.66,3.78-10.77,0.09l2.72-2.31c1.88,2.23,3.71,2.28,6.27,0.11c2.48-2.1,2.84-3.72,1.23-5.64
		C206.31,215.52,198.26,226.44,192.9,220.06"/>
	<polygon class="st0" points="169.37,246.48 175.47,243.8 167.98,226.57 171.56,225 179.06,242.23 185.16,239.56 186.42,242.46 
		170.64,249.38 	"/>
	<path class="st0" d="M148.33,234.47c-0.32-1.5,0.21-2.29,1.74-2.62c1.49-0.33,2.28,0.18,2.6,1.68c0.33,1.53-0.17,2.32-1.67,2.64
		C149.47,236.5,148.65,235.97,148.33,234.47"/>
	<path class="st0" d="M93.3,163.14v-47.66h13.46v48.02c0,9.3-7.51,16.84-16.78,16.84c-9.26,0-16.78-7.54-16.78-16.84V79.64h13.46
		v83.5c0,2.33,1.49,3.7,3.32,3.7C91.81,166.84,93.3,165.47,93.3,163.14"/>
	<path class="st0" d="M161.99,84.36c-2.58-2.9-6.33-4.72-10.5-4.72h-2.9v13.84h4.68v14.63h11.3V95.55c0-1.33,1.07-2.4,2.39-2.4
		c1.32,0,2.39,1.07,2.39,2.4v67.59c0,2.33-1.48,3.7-3.32,3.7s-3.32-1.37-3.32-3.7v-47.65h-13.46v48.02c0,9.3,7.51,16.85,16.78,16.85
		c9.26,0,16.78-7.54,16.78-16.85V92.14c0-6.57-5.31-11.9-11.85-11.9C167.37,80.24,164.16,81.84,161.99,84.36"/>
	<path class="st0" d="M137.4,106.46c-0.24-0.28-0.66-0.76-0.9-1.03c2.73-2.84,7.35-8.33,7.35-15.02c0-7.62-6.05-14.76-15.57-14.76
		c-8.2,0-15.57,5.96-15.57,14.67c0,11.66,11.68,17.46,16.88,27.25c1.52,2.87,1.97,8.61,1.97,12.22v33.35c0,2.33-1.49,3.7-3.32,3.7
		s-3.32-1.37-3.32-3.7v-47.65h-13.46v48.02c0,9.3,7.51,16.85,16.78,16.85c9.26,0,16.78-7.54,16.78-16.85V128
		C145.02,118.72,141.55,111.28,137.4,106.46 M128.72,98.19c-2.53-2.37-4.3-4.94-4.3-7.97c0-3.3,1.34-5.05,3.83-5.05
		s3.83,1.75,3.83,5.05C132.07,93.52,130.79,96.01,128.72,98.19"/>
</g>
</svg>
